<?xml version="1.0" encoding="us-ascii" standalone="no"?><svg xmlns="http://www.w3.org/2000/svg" xmlns:xlink="http://www.w3.org/1999/xlink" contentStyleType="text/css" height="736px" preserveAspectRatio="none" style="width:1546px;height:736px;background:#FFFFFF;" version="1.1" viewBox="0 0 1546 736" width="1546px" zoomAndPan="magnify"><defs/><g><!--class ParcelaAgricola--><g id="elem_ParcelaAgricola"><rect codeLine="14" fill="#F1F1F1" height="64.9219" id="ParcelaAgricola" rx="2.5" ry="2.5" style="stroke:#181818;stroke-width:0.5;" width="105" x="178" y="618"/><text fill="#000000" font-family="sans-serif" font-size="14" lengthAdjust="spacing" textLength="99" x="181" y="635.6738">ParcelaAgricola</text><line style="stroke:#181818;stroke-width:0.5;" x1="179" x2="282" y1="643.6406" y2="643.6406"/><text fill="#000000" font-family="sans-serif" font-size="14" lengthAdjust="spacing" textLength="73" x="184" y="660.3145">designacao</text><text fill="#000000" font-family="sans-serif" font-size="14" lengthAdjust="spacing" textLength="29" x="184" y="675.9551">area</text></g><!--class Cultura--><g id="elem_Cultura"><rect codeLine="19" fill="#F1F1F1" height="49.2813" id="Cultura" rx="2.5" ry="2.5" style="stroke:#181818;stroke-width:0.5;" width="52" x="252.5" y="148"/><text fill="#000000" font-family="sans-serif" font-size="14" lengthAdjust="spacing" textLength="46" x="255.5" y="165.6738">Cultura</text><line style="stroke:#181818;stroke-width:0.5;" x1="253.5" x2="303.5" y1="173.6406" y2="173.6406"/><text fill="#000000" font-family="sans-serif" font-size="14" lengthAdjust="spacing" textLength="35" x="258.5" y="190.3145">nome</text></g><!--class Cabaz--><g id="elem_Cabaz"><rect codeLine="25" fill="#F1F1F1" height="64.9219" id="Cabaz" rx="2.5" ry="2.5" style="stroke:#181818;stroke-width:0.5;" width="83" x="573" y="140"/><text fill="#000000" font-family="sans-serif" font-size="14" lengthAdjust="spacing" textLength="40" x="594.5" y="157.6738">Cabaz</text><line style="stroke:#181818;stroke-width:0.5;" x1="574" x2="655" y1="165.6406" y2="165.6406"/><text fill="#000000" font-family="sans-serif" font-size="14" lengthAdjust="spacing" textLength="71" x="579" y="182.3145">quantidade</text><text fill="#000000" font-family="sans-serif" font-size="14" lengthAdjust="spacing" textLength="28" x="579" y="197.9551">data</text></g><!--class FactorProducao--><g id="elem_FactorProducao"><rect codeLine="30" fill="#F1F1F1" height="64.9219" id="FactorProducao" rx="2.5" ry="2.5" style="stroke:#181818;stroke-width:0.5;" width="110" x="853.5" y="140"/><text fill="#000000" font-family="sans-serif" font-size="14" lengthAdjust="spacing" textLength="102" x="857.5" y="157.6738">FactorProducao</text><line style="stroke:#181818;stroke-width:0.5;" x1="854.5" x2="962.5" y1="165.6406" y2="165.6406"/><text fill="#000000" font-family="sans-serif" font-size="14" lengthAdjust="spacing" textLength="98" x="859.5" y="182.3145">nomeComercial</text><text fill="#000000" font-family="sans-serif" font-size="14" lengthAdjust="spacing" textLength="63" x="859.5" y="197.9551">fabricante</text></g><!--class FatorProducao_tipo--><g id="elem_FatorProducao_tipo"><rect codeLine="35" fill="#F1F1F1" height="49.2813" id="FatorProducao_tipo" rx="2.5" ry="2.5" style="stroke:#181818;stroke-width:0.5;" width="174" x="1365.5" y="297"/><text fill="#000000" font-family="sans-serif" font-size="14" lengthAdjust="spacing" textLength="126" x="1389.5" y="314.6738">FatorProducao_tipo</text><line style="stroke:#181818;stroke-width:0.5;" x1="1366.5" x2="1538.5" y1="322.6406" y2="322.6406"/><text fill="#000000" font-family="sans-serif" font-size="14" lengthAdjust="spacing" textLength="162" x="1371.5" y="339.3145">aplicacaoFactorProducao</text></g><!--class TipoFactorProducao--><g id="elem_TipoFactorProducao"><rect codeLine="39" fill="#F1F1F1" height="49.2813" id="TipoFactorProducao" rx="2.5" ry="2.5" style="stroke:#181818;stroke-width:0.5;" width="137" x="1384" y="438"/><text fill="#000000" font-family="sans-serif" font-size="14" lengthAdjust="spacing" textLength="130" x="1387.5" y="455.6738">TipoFactorProducao</text><line style="stroke:#181818;stroke-width:0.5;" x1="1385" x2="1520" y1="463.6406" y2="463.6406"/><text fill="#000000" font-family="sans-serif" font-size="14" lengthAdjust="spacing" textLength="125" x="1390" y="480.3145">tipoFactorProducao</text></g><!--class FichaTecnica--><g id="elem_FichaTecnica"><rect codeLine="43" fill="#F1F1F1" height="49.2813" id="FichaTecnica" rx="2.5" ry="2.5" style="stroke:#181818;stroke-width:0.5;" width="91" x="691" y="148"/><text fill="#000000" font-family="sans-serif" font-size="14" lengthAdjust="spacing" textLength="85" x="694" y="165.6738">FichaTecnica</text><line style="stroke:#181818;stroke-width:0.5;" x1="692" x2="781" y1="173.6406" y2="173.6406"/><text fill="#000000" font-family="sans-serif" font-size="14" lengthAdjust="spacing" textLength="71" x="697" y="190.3145">quantidade</text></g><!--class ElementoSubstancias--><g id="elem_ElementoSubstancias"><rect codeLine="47" fill="#F1F1F1" height="49.2813" id="ElementoSubstancias" rx="2.5" ry="2.5" style="stroke:#181818;stroke-width:0.5;" width="176" x="645.5" y="7"/><text fill="#000000" font-family="sans-serif" font-size="14" lengthAdjust="spacing" textLength="136" x="665.5" y="24.6738">ElementoSubstancias</text><line style="stroke:#181818;stroke-width:0.5;" x1="646.5" x2="820.5" y1="32.6406" y2="32.6406"/><text fill="#000000" font-family="sans-serif" font-size="14" lengthAdjust="spacing" textLength="164" x="651.5" y="49.3145">nomeElementoSubstancia</text></g><!--class SensorMetereologico--><g id="elem_SensorMetereologico"><rect codeLine="52" fill="#F1F1F1" height="64.9219" id="SensorMetereologico" rx="2.5" ry="2.5" style="stroke:#181818;stroke-width:0.5;" width="140" x="1015.5" y="430"/><text fill="#000000" font-family="sans-serif" font-size="14" lengthAdjust="spacing" textLength="134" x="1018.5" y="447.6738">SensorMetereologico</text><line style="stroke:#181818;stroke-width:0.5;" x1="1016.5" x2="1154.5" y1="455.6406" y2="455.6406"/><text fill="#000000" font-family="sans-serif" font-size="14" lengthAdjust="spacing" textLength="39" x="1021.5" y="472.3145">marca</text><text fill="#000000" font-family="sans-serif" font-size="14" lengthAdjust="spacing" textLength="46" x="1021.5" y="487.9551">modelo</text></g><!--class TipoSensorMetereologico--><g id="elem_TipoSensorMetereologico"><rect codeLine="57" fill="#F1F1F1" height="49.2813" id="TipoSensorMetereologico" rx="2.5" ry="2.5" style="stroke:#181818;stroke-width:0.5;" width="169" x="1001" y="626"/><text fill="#000000" font-family="sans-serif" font-size="14" lengthAdjust="spacing" textLength="162" x="1004.5" y="643.6738">TipoSensorMetereologico</text><line style="stroke:#181818;stroke-width:0.5;" x1="1002" x2="1169" y1="651.6406" y2="651.6406"/><text fill="#000000" font-family="sans-serif" font-size="14" lengthAdjust="spacing" textLength="157" x="1007" y="668.3145">tipoSensorMetereologico</text></g><!--class LeituraMetereologica--><g id="elem_LeituraMetereologica"><rect codeLine="60" fill="#F1F1F1" height="158.7656" id="LeituraMetereologica" rx="2.5" ry="2.5" style="stroke:#181818;stroke-width:0.5;" width="139" x="656" y="571"/><text fill="#000000" font-family="sans-serif" font-size="14" lengthAdjust="spacing" textLength="133" x="659" y="588.6738">LeituraMetereologica</text><line style="stroke:#181818;stroke-width:0.5;" x1="657" x2="794" y1="596.6406" y2="596.6406"/><text fill="#000000" font-family="sans-serif" font-size="14" lengthAdjust="spacing" textLength="29" x="662" y="613.3145">hora</text><text fill="#000000" font-family="sans-serif" font-size="14" lengthAdjust="spacing" textLength="79" x="662" y="628.9551">pluviosidade</text><text fill="#000000" font-family="sans-serif" font-size="14" lengthAdjust="spacing" textLength="105" x="662" y="644.5957">temperaturaSolo</text><text fill="#000000" font-family="sans-serif" font-size="14" lengthAdjust="spacing" textLength="90" x="662" y="660.2363">humidadeSolo</text><text fill="#000000" font-family="sans-serif" font-size="14" lengthAdjust="spacing" textLength="105" x="662" y="675.877">velocidadeVento</text><text fill="#000000" font-family="sans-serif" font-size="14" lengthAdjust="spacing" textLength="91" x="662" y="691.5176">temperaturaAr</text><text fill="#000000" font-family="sans-serif" font-size="14" lengthAdjust="spacing" textLength="76" x="662" y="707.1582">humidadeAr</text><text fill="#000000" font-family="sans-serif" font-size="14" lengthAdjust="spacing" textLength="125" x="662" y="722.7988">pressaoAtmosferica</text></g><!--class CadernoCampo--><g id="elem_CadernoCampo"><rect codeLine="71" fill="#F1F1F1" height="33.6406" id="CadernoCampo" rx="2.5" ry="2.5" style="stroke:#181818;stroke-width:0.5;" width="106" x="278.5" y="304.5"/><text fill="#000000" font-family="sans-serif" font-size="14" lengthAdjust="spacing" textLength="100" x="281.5" y="322.1738">CadernoCampo</text><line style="stroke:#181818;stroke-width:0.5;" x1="279.5" x2="383.5" y1="330.1406" y2="330.1406"/></g><!--class SistemaDeRega--><g id="elem_SistemaDeRega"><rect codeLine="75" fill="#F1F1F1" height="33.6406" id="SistemaDeRega" rx="2.5" ry="2.5" style="stroke:#181818;stroke-width:0.5;" width="108" x="201.5" y="14.5"/><text fill="#000000" font-family="sans-serif" font-size="14" lengthAdjust="spacing" textLength="102" x="204.5" y="32.1738">SistemaDeRega</text><line style="stroke:#181818;stroke-width:0.5;" x1="202.5" x2="308.5" y1="40.1406" y2="40.1406"/></g><!--class ProdutosAgricolas--><g id="elem_ProdutosAgricolas"><rect codeLine="77" fill="#F1F1F1" height="49.2813" id="ProdutosAgricolas" rx="2.5" ry="2.5" style="stroke:#181818;stroke-width:0.5;" width="148" x="540.5" y="297"/><text fill="#000000" font-family="sans-serif" font-size="14" lengthAdjust="spacing" textLength="115" x="557" y="314.6738">ProdutosAgricolas</text><line style="stroke:#181818;stroke-width:0.5;" x1="541.5" x2="687.5" y1="322.6406" y2="322.6406"/><text fill="#000000" font-family="sans-serif" font-size="14" lengthAdjust="spacing" textLength="136" x="546.5" y="339.3145">nomeProdutoAgricola</text></g><!--class CulturaParcelaAgricola--><g id="elem_CulturaParcelaAgricola"><rect codeLine="82" fill="#F1F1F1" height="80.5625" id="CulturaParcelaAgricola" rx="2.5" ry="2.5" style="stroke:#181818;stroke-width:0.5;" width="151" x="340" y="132"/><text fill="#000000" font-family="sans-serif" font-size="14" lengthAdjust="spacing" textLength="145" x="343" y="149.6738">CulturaParcelaAgricola</text><line style="stroke:#181818;stroke-width:0.5;" x1="341" x2="490" y1="157.6406" y2="157.6406"/><text fill="#000000" font-family="sans-serif" font-size="14" lengthAdjust="spacing" textLength="71" x="346" y="174.3145">quantidade</text><text fill="#000000" font-family="sans-serif" font-size="14" lengthAdjust="spacing" textLength="60" x="346" y="189.9551">dataInicio</text><text fill="#000000" font-family="sans-serif" font-size="14" lengthAdjust="spacing" textLength="51" x="346" y="205.5957">dataFim</text></g><!--class Unidade--><g id="elem_Unidade"><rect codeLine="88" fill="#F1F1F1" height="49.2813" id="Unidade" rx="2.5" ry="2.5" style="stroke:#181818;stroke-width:0.5;" width="85" x="420" y="297"/><text fill="#000000" font-family="sans-serif" font-size="14" lengthAdjust="spacing" textLength="52" x="436.5" y="314.6738">Unidade</text><line style="stroke:#181818;stroke-width:0.5;" x1="421" x2="504" y1="322.6406" y2="322.6406"/><text fill="#000000" font-family="sans-serif" font-size="14" lengthAdjust="spacing" textLength="73" x="426" y="339.3145">designa&#231;&#227;o</text></g><!--class TipoCultura--><g id="elem_TipoCultura"><rect codeLine="93" fill="#F1F1F1" height="49.2813" id="TipoCultura" rx="2.5" ry="2.5" style="stroke:#181818;stroke-width:0.5;" width="81" x="91" y="297"/><text fill="#000000" font-family="sans-serif" font-size="14" lengthAdjust="spacing" textLength="74" x="94.5" y="314.6738">TipoCultura</text><line style="stroke:#181818;stroke-width:0.5;" x1="92" x2="171" y1="322.6406" y2="322.6406"/><text fill="#000000" font-family="sans-serif" font-size="14" lengthAdjust="spacing" textLength="69" x="97" y="339.3145">tipoCultura</text></g><!--class Formulacao--><g id="elem_Formulacao"><rect codeLine="96" fill="#F1F1F1" height="49.2813" id="Formulacao" rx="2.5" ry="2.5" style="stroke:#181818;stroke-width:0.5;" width="110" x="856.5" y="7"/><text fill="#000000" font-family="sans-serif" font-size="14" lengthAdjust="spacing" textLength="75" x="874" y="24.6738">Formulacao</text><line style="stroke:#181818;stroke-width:0.5;" x1="857.5" x2="965.5" y1="32.6406" y2="32.6406"/><text fill="#000000" font-family="sans-serif" font-size="14" lengthAdjust="spacing" textLength="98" x="862.5" y="49.3145">tipoFormulacao</text></g><!--class OperacaoAgricola--><g id="elem_OperacaoAgricola"><rect codeLine="100" fill="#F1F1F1" height="64.9219" id="OperacaoAgricola" rx="2.5" ry="2.5" style="stroke:#181818;stroke-width:0.5;" width="137" x="383" y="430"/><text fill="#000000" font-family="sans-serif" font-size="14" lengthAdjust="spacing" textLength="114" x="394.5" y="447.6738">OperacaoAgricola</text><line style="stroke:#181818;stroke-width:0.5;" x1="384" x2="519" y1="455.6406" y2="455.6406"/><text fill="#000000" font-family="sans-serif" font-size="14" lengthAdjust="spacing" textLength="97" x="389" y="472.3145">dataRealizacao</text><text fill="#000000" font-family="sans-serif" font-size="14" lengthAdjust="spacing" textLength="125" x="389" y="487.9551">quantidadeAplicada</text></g><!--class TipoOperacaoAgricola--><g id="elem_TipoOperacaoAgricola"><rect codeLine="105" fill="#F1F1F1" height="49.2813" id="TipoOperacaoAgricola" rx="2.5" ry="2.5" style="stroke:#181818;stroke-width:0.5;" width="149" x="592" y="438"/><text fill="#000000" font-family="sans-serif" font-size="14" lengthAdjust="spacing" textLength="142" x="595.5" y="455.6738">TipoOperacaoAgricola</text><line style="stroke:#181818;stroke-width:0.5;" x1="593" x2="740" y1="463.6406" y2="463.6406"/><text fill="#000000" font-family="sans-serif" font-size="14" lengthAdjust="spacing" textLength="137" x="598" y="480.3145">tipoOperacaoAgricola</text></g><!--class Fertilizacao--><g id="elem_Fertilizacao"><rect codeLine="108" fill="#F1F1F1" height="33.6406" id="Fertilizacao" rx="2.5" ry="2.5" style="stroke:#181818;stroke-width:0.5;" width="78" x="364.5" y="633.5"/><text fill="#000000" font-family="sans-serif" font-size="14" lengthAdjust="spacing" textLength="72" x="367.5" y="651.1738">Fertilizacao</text><line style="stroke:#181818;stroke-width:0.5;" x1="365.5" x2="441.5" y1="659.1406" y2="659.1406"/></g><!--class TipoFertilizacao--><g id="elem_TipoFertilizacao"><rect codeLine="112" fill="#F1F1F1" height="49.2813" id="TipoFertilizacao" rx="2.5" ry="2.5" style="stroke:#181818;stroke-width:0.5;" width="107" x="514" y="626"/><text fill="#000000" font-family="sans-serif" font-size="14" lengthAdjust="spacing" textLength="100" x="517.5" y="643.6738">TipoFertilizacao</text><line style="stroke:#181818;stroke-width:0.5;" x1="515" x2="620" y1="651.6406" y2="651.6406"/><text fill="#000000" font-family="sans-serif" font-size="14" lengthAdjust="spacing" textLength="95" x="520" y="668.3145">tipoFertilizacao</text></g><!--class PlanoRega--><g id="elem_PlanoRega"><rect codeLine="116" fill="#F1F1F1" height="64.9219" id="PlanoRega" rx="2.5" ry="2.5" style="stroke:#181818;stroke-width:0.5;" width="82" x="68.5" y="430"/><text fill="#000000" font-family="sans-serif" font-size="14" lengthAdjust="spacing" textLength="70" x="74.5" y="447.6738">PlanoRega</text><line style="stroke:#181818;stroke-width:0.5;" x1="69.5" x2="149.5" y1="455.6406" y2="455.6406"/><text fill="#000000" font-family="sans-serif" font-size="14" lengthAdjust="spacing" textLength="70" x="74.5" y="472.3145">horasRega</text><text fill="#000000" font-family="sans-serif" font-size="14" lengthAdjust="spacing" textLength="52" x="74.5" y="487.9551">duracao</text></g><!--class Regularidade--><g id="elem_Regularidade"><rect codeLine="121" fill="#F1F1F1" height="49.2813" id="Regularidade" rx="2.5" ry="2.5" style="stroke:#181818;stroke-width:0.5;" width="120" x="22.5" y="626"/><text fill="#000000" font-family="sans-serif" font-size="14" lengthAdjust="spacing" textLength="85" x="40" y="643.6738">Regularidade</text><line style="stroke:#181818;stroke-width:0.5;" x1="23.5" x2="141.5" y1="651.6406" y2="651.6406"/><text fill="#000000" font-family="sans-serif" font-size="14" lengthAdjust="spacing" textLength="108" x="28.5" y="668.3145">tipoRegularidade</text></g><!--class HubsDestribuicao--><g id="elem_HubsDestribuicao"><rect codeLine="124" fill="#F1F1F1" height="64.9219" id="HubsDestribuicao" rx="2.5" ry="2.5" style="stroke:#181818;stroke-width:0.5;" width="123" x="724" y="289"/><text fill="#000000" font-family="sans-serif" font-size="14" lengthAdjust="spacing" textLength="111" x="730" y="306.6738">HubsDestribuicao</text><line style="stroke:#181818;stroke-width:0.5;" x1="725" x2="846" y1="314.6406" y2="314.6406"/><text fill="#000000" font-family="sans-serif" font-size="14" lengthAdjust="spacing" textLength="111" x="730" y="331.3145">nomeConsumidor</text><text fill="#000000" font-family="sans-serif" font-size="14" lengthAdjust="spacing" textLength="90" x="730" y="346.9551">nomeProdutor</text></g><!--class HubsDestribuicaoCabaz--><g id="elem_HubsDestribuicaoCabaz"><rect codeLine="129" fill="#F1F1F1" height="33.6406" id="HubsDestribuicaoCabaz" rx="2.5" ry="2.5" style="stroke:#181818;stroke-width:0.5;" width="157" x="992" y="304.5"/><text fill="#000000" font-family="sans-serif" font-size="14" lengthAdjust="spacing" textLength="151" x="995" y="322.1738">HubsDestribuicaoCabaz</text><line style="stroke:#181818;stroke-width:0.5;" x1="993" x2="1148" y1="330.1406" y2="330.1406"/></g><!--class EstacaoMetereologica--><g id="elem_EstacaoMetereologica"><rect codeLine="132" fill="#F1F1F1" height="33.6406" id="EstacaoMetereologica" rx="2.5" ry="2.5" style="stroke:#181818;stroke-width:0.5;" width="146" x="1184.5" y="304.5"/><text fill="#000000" font-family="sans-serif" font-size="14" lengthAdjust="spacing" textLength="140" x="1187.5" y="322.1738">EstacaoMetereologica</text><line style="stroke:#181818;stroke-width:0.5;" x1="1185.5" x2="1329.5" y1="330.1406" y2="330.1406"/></g><!--class Controlador--><g id="elem_Controlador"><rect codeLine="135" fill="#F1F1F1" height="33.6406" id="Controlador" rx="2.5" ry="2.5" style="stroke:#181818;stroke-width:0.5;" width="81" x="7" y="14.5"/><text fill="#000000" font-family="sans-serif" font-size="14" lengthAdjust="spacing" textLength="75" x="10" y="32.1738">Controlador</text><line style="stroke:#181818;stroke-width:0.5;" x1="8" x2="87" y1="40.1406" y2="40.1406"/></g><!--link Cultura to TipoCultura--><g id="link_Cultura_TipoCultura"><path codeLine="140" d="M252.08,183.43 C226.09,194.41 186.86,214.41 162.5,243 C149.34,258.44 141.3,280.17 136.72,296.69 " fill="none" id="Cultura-TipoCultura" style="stroke:#181818;stroke-width:1.0;"/><polygon fill="#000000" points="163.9321,254.7646,172.4454,250.5249,168.3275,246.3307,163.9321,254.7646" style="stroke:#000000;stroke-width:1.0;"/><text fill="#000000" font-family="sans-serif" font-size="13" lengthAdjust="spacing" textLength="22" x="176.5" y="255.7686">tem</text><text fill="#000000" font-family="sans-serif" font-size="13" lengthAdjust="spacing" textLength="20" x="224.5684" y="182.0341">1..*</text><text fill="#000000" font-family="sans-serif" font-size="13" lengthAdjust="spacing" textLength="7" x="130.1608" y="286.3383">1</text></g><!--link Cultura to CulturaParcelaAgricola--><g id="link_Cultura_CulturaParcelaAgricola"><path codeLine="141" d="M304.72,172.5 C316.41,172.5 328.09,172.5 339.77,172.5 " fill="none" id="Cultura-CulturaParcelaAgricola" style="stroke:#181818;stroke-width:1.0;"/><text fill="#000000" font-family="sans-serif" font-size="13" lengthAdjust="spacing" textLength="7" x="312.3358" y="168.5058">1</text><text fill="#000000" font-family="sans-serif" font-size="13" lengthAdjust="spacing" textLength="20" x="311.8668" y="169.6675">1..*</text></g><!--link Cultura to FactorProducao--><g id="link_Cultura_FactorProducao"><path codeLine="142" d="M284.31,147.69 C289.71,130.74 299.62,109.51 317,99 C331.07,90.49 337.57,98.39 354,99 C552.41,106.34 605.52,89.67 799.5,132 C817.45,135.92 836.41,142.17 853.4,148.6 " fill="none" id="Cultura-FactorProducao" style="stroke:#181818;stroke-width:1.0;"/><polygon fill="#000000" points="327,94.2697,317.9596,91.3163,317.9502,97.1942,327,94.2697" style="stroke:#000000;stroke-width:1.0;"/><text fill="#000000" font-family="sans-serif" font-size="13" lengthAdjust="spacing" textLength="22" x="331" y="98.7686">tem</text><text fill="#000000" font-family="sans-serif" font-size="13" lengthAdjust="spacing" textLength="7" x="277.9019" y="137.3383">1</text><text fill="#000000" font-family="sans-serif" font-size="13" lengthAdjust="spacing" textLength="5" x="840.66" y="142.2568">*</text></g><!--link CulturaParcelaAgricola to ParcelaAgricola--><g id="link_CulturaParcelaAgricola_ParcelaAgricola"><path codeLine="143" d="M339.65,211.6 C309.84,230.62 278.5,256.58 260.5,289 C200.53,397.04 215.02,551.95 224.94,617.87 " fill="none" id="CulturaParcelaAgricola-ParcelaAgricola" style="stroke:#181818;stroke-width:1.0;"/><text fill="#000000" font-family="sans-serif" font-size="13" lengthAdjust="spacing" textLength="20" x="312.004" y="212.2703">1..*</text><text fill="#000000" font-family="sans-serif" font-size="13" lengthAdjust="spacing" textLength="7" x="215.9581" y="607.0353">1</text></g><!--link CulturaParcelaAgricola to Unidade--><g id="link_CulturaParcelaAgricola_Unidade"><path codeLine="144" d="M428.22,213.28 C436.76,239.98 447.71,274.26 454.91,296.78 " fill="none" id="CulturaParcelaAgricola-Unidade" style="stroke:#181818;stroke-width:1.0;"/><polygon fill="#000000" points="449.0223,256.0243,449.0678,246.5139,443.469,248.3035,449.0223,256.0243" style="stroke:#000000;stroke-width:1.0;"/><text fill="#000000" font-family="sans-serif" font-size="13" lengthAdjust="spacing" textLength="22" x="456.5" y="255.7686">t&#234;m</text><text fill="#000000" font-family="sans-serif" font-size="13" lengthAdjust="spacing" textLength="20" x="408.6365" y="232.4384">1..*</text><text fill="#000000" font-family="sans-serif" font-size="13" lengthAdjust="spacing" textLength="7" x="444.9296" y="286.0563">1</text></g><!--link Unidade to OperacaoAgricola--><g id="link_Unidade_OperacaoAgricola"><path codeLine="145" d="M460.63,346.08 C458.81,369.16 456.01,404.47 454,429.96 " fill="none" id="Unidade-OperacaoAgricola" style="stroke:#181818;stroke-width:1.0;"/><polygon fill="#000000" points="462.894,387.2773,459.2515,396.0627,465.1111,396.5258,462.894,387.2773" style="stroke:#000000;stroke-width:1.0;"/><text fill="#000000" font-family="sans-serif" font-size="13" lengthAdjust="spacing" textLength="22" x="471.5" y="396.7686">tem</text><text fill="#000000" font-family="sans-serif" font-size="13" lengthAdjust="spacing" textLength="7" x="452.2539" y="365.972">1</text><text fill="#000000" font-family="sans-serif" font-size="13" lengthAdjust="spacing" textLength="20" x="432.3594" y="419.145">1..*</text></g><!--link SensorMetereologico to LeituraMetereologica--><g id="link_SensorMetereologico_LeituraMetereologica"><path codeLine="146" d="M1024.43,495.05 C960.94,527.86 861.71,579.12 795.2,613.49 " fill="none" id="SensorMetereologico-LeituraMetereologica" style="stroke:#181818;stroke-width:1.0;"/><polygon fill="#000000" points="959.0579,535.5569,968.4428,534.0159,965.7447,528.7939,959.0579,535.5569" style="stroke:#000000;stroke-width:1.0;"/><text fill="#000000" font-family="sans-serif" font-size="13" lengthAdjust="spacing" textLength="17" x="972.5" y="537.7686">faz</text><text fill="#000000" font-family="sans-serif" font-size="13" lengthAdjust="spacing" textLength="7" x="1004.7178" y="514.6642">1</text><text fill="#000000" font-family="sans-serif" font-size="13" lengthAdjust="spacing" textLength="20" x="803.0455" y="606.9636">1..*</text></g><!--link Formulacao to FactorProducao--><g id="link_Formulacao_FactorProducao"><path codeLine="147" d="M910.99,56.08 C910.49,79.16 909.73,114.47 909.18,139.96 " fill="none" id="Formulacao-FactorProducao" style="stroke:#181818;stroke-width:1.0;"/><polygon fill="#000000" points="914.6079,89.2629,911.4745,98.2425,917.351,98.3693,914.6079,89.2629" style="stroke:#000000;stroke-width:1.0;"/><text fill="#000000" font-family="sans-serif" font-size="13" lengthAdjust="spacing" textLength="22" x="923.5" y="98.7686">tem</text><text fill="#000000" font-family="sans-serif" font-size="13" lengthAdjust="spacing" textLength="7" x="902.9624" y="75.972">1</text><text fill="#000000" font-family="sans-serif" font-size="13" lengthAdjust="spacing" textLength="20" x="887.1412" y="129.145">1..*</text></g><!--link FatorProducao_tipo to TipoFactorProducao--><g id="link_FatorProducao_tipo_TipoFactorProducao"><path codeLine="149" d="M1452.5,346.08 C1452.5,371.64 1452.5,412.2 1452.5,437.8 " fill="none" id="FatorProducao_tipo-TipoFactorProducao" style="stroke:#181818;stroke-width:1.0;"/><polygon fill="#000000" points="1457.5,397.2617,1460.4389,388.2166,1454.5611,388.2166,1457.5,397.2617" style="stroke:#000000;stroke-width:1.0;"/><text fill="#000000" font-family="sans-serif" font-size="13" lengthAdjust="spacing" textLength="22" x="1466.5" y="396.7686">tem</text><text fill="#000000" font-family="sans-serif" font-size="13" lengthAdjust="spacing" textLength="20" x="1429.9375" y="365.972">1..*</text><text fill="#000000" font-family="sans-serif" font-size="13" lengthAdjust="spacing" textLength="7" x="1444.5594" y="427.0817">1</text></g><!--link FactorProducao to FatorProducao_tipo--><g id="link_FactorProducao_FatorProducao_tipo"><path codeLine="150" d="M963.56,187.25 C1047.04,208.26 1210.56,250.02 1348.5,289 C1357.4,291.51 1366.7,294.22 1375.92,296.95 " fill="none" id="FactorProducao-FatorProducao_tipo" style="stroke:#181818;stroke-width:1.0;"/><polygon fill="#000000" points="1237.3319,252.5472,1229.3464,247.3816,1227.8353,253.0619,1237.3319,252.5472" style="stroke:#000000;stroke-width:1.0;"/><text fill="#000000" font-family="sans-serif" font-size="13" lengthAdjust="spacing" textLength="22" x="1241.5" y="255.7686">tem</text><text fill="#000000" font-family="sans-serif" font-size="13" lengthAdjust="spacing" textLength="7" x="971.429" y="186.1004">1</text><text fill="#000000" font-family="sans-serif" font-size="13" lengthAdjust="spacing" textLength="7" x="1350.4015" y="287.4506">1</text></g><!--link SistemaDeRega to Cultura--><g id="link_SistemaDeRega_Cultura"><path codeLine="152" d="M258.18,48.72 C262.24,73.21 269.94,119.76 274.61,147.98 " fill="none" id="SistemaDeRega-Cultura" style="stroke:#181818;stroke-width:1.0;"/><polygon fill="#000000" points="271.6835,89.3288,270.2611,98.7324,276.06,97.7726,271.6835,89.3288" style="stroke:#000000;stroke-width:1.0;"/><text fill="#000000" font-family="sans-serif" font-size="13" lengthAdjust="spacing" textLength="22" x="281.5" y="98.7686">tem</text><text fill="#000000" font-family="sans-serif" font-size="13" lengthAdjust="spacing" textLength="7" x="250.9289" y="68.0411">1</text><text fill="#000000" font-family="sans-serif" font-size="13" lengthAdjust="spacing" textLength="24" x="246.3396" y="137.3101">1...*</text></g><!--reverse link OperacaoAgricola to Fertilizacao--><g id="link_OperacaoAgricola_Fertilizacao"><path codeLine="153" d="M438.35,514.47 C428.07,554.28 414.44,607.1 407.68,633.31 " fill="none" id="OperacaoAgricola-backto-Fertilizacao" style="stroke:#181818;stroke-width:1.0;"/><polygon fill="none" points="431.58,512.67,443.36,495.05,445.14,516.17,431.58,512.67" style="stroke:#181818;stroke-width:1.0;"/></g><!--link OperacaoAgricola to ParcelaAgricola--><g id="link_OperacaoAgricola_ParcelaAgricola"><path codeLine="154" d="M382.87,476.8 C351.03,485.89 314.56,500.83 288.5,525 C261.58,549.97 246.06,589.95 237.96,617.85 " fill="none" id="OperacaoAgricola-ParcelaAgricola" style="stroke:#181818;stroke-width:1.0;"/><polygon fill="#000000" points="289.9171,536.7492,298.4485,532.5463,294.3488,528.3343,289.9171,536.7492" style="stroke:#000000;stroke-width:1.0;"/><text fill="#000000" font-family="sans-serif" font-size="13" lengthAdjust="spacing" textLength="22" x="302.5" y="537.7686">tem</text><text fill="#000000" font-family="sans-serif" font-size="13" lengthAdjust="spacing" textLength="7" x="367.9808" y="475.3999">1</text><text fill="#000000" font-family="sans-serif" font-size="13" lengthAdjust="spacing" textLength="20" x="241.7794" y="607.0109">1..*</text></g><!--reverse link OperacaoAgricola to LeituraMetereologica--><g id="link_OperacaoAgricola_LeituraMetereologica"><path codeLine="155" d="M531.88,504.8 C565.81,523.47 605.11,546.76 638.5,571 C644.26,575.18 650.07,579.69 655.82,584.35 " fill="none" id="OperacaoAgricola-backto-LeituraMetereologica" style="stroke:#181818;stroke-width:1.0;"/><polygon fill="none" points="528.43,510.89,514.18,495.21,535.1,498.58,528.43,510.89" style="stroke:#181818;stroke-width:1.0;"/></g><!--link Cabaz to ProdutosAgricolas--><g id="link_Cabaz_ProdutosAgricolas"><path codeLine="156" d="M614.5,205.04 C614.5,232.54 614.5,271.83 614.5,296.75 " fill="none" id="Cabaz-ProdutosAgricolas" style="stroke:#181818;stroke-width:1.0;"/><polygon fill="#000000" points="619.5,256.2617,622.4389,247.2166,616.5611,247.2166,619.5,256.2617" style="stroke:#000000;stroke-width:1.0;"/><text fill="#000000" font-family="sans-serif" font-size="13" lengthAdjust="spacing" textLength="43" x="628.5" y="255.7686">cont&#233;m</text><text fill="#000000" font-family="sans-serif" font-size="13" lengthAdjust="spacing" textLength="7" x="606.8109" y="224.6522">1</text><text fill="#000000" font-family="sans-serif" font-size="13" lengthAdjust="spacing" textLength="20" x="591.9375" y="286.4136">1..*</text></g><!--link Controlador to SistemaDeRega--><g id="link_Controlador_SistemaDeRega"><path codeLine="157" d="M88.1,31.5 C120.37,31.5 165.82,31.5 201.22,31.5 " fill="none" id="Controlador-SistemaDeRega" style="stroke:#181818;stroke-width:1.0;"/><polygon fill="#000000" points="115.75,20.7617,124.7951,23.7006,124.7951,17.8228,115.75,20.7617" style="stroke:#000000;stroke-width:1.0;"/><text fill="#000000" font-family="sans-serif" font-size="13" lengthAdjust="spacing" textLength="43" x="129.75" y="25.2686">cont&#233;m</text><text fill="#000000" font-family="sans-serif" font-size="13" lengthAdjust="spacing" textLength="7" x="95.9553" y="28.1003">1</text><text fill="#000000" font-family="sans-serif" font-size="13" lengthAdjust="spacing" textLength="7" x="186.4558" y="28.3872">1</text></g><!--link Controlador to PlanoRega--><g id="link_Controlador_PlanoRega"><path codeLine="158" d="M47.43,48.75 C47.53,96.26 49.92,238.79 73.5,354 C78.83,380.03 88.55,408.5 96.55,429.6 " fill="none" id="Controlador-PlanoRega" style="stroke:#181818;stroke-width:1.0;"/><polygon fill="#000000" points="65.1396,256.2206,66.8974,246.8739,61.0678,247.6258,65.1396,256.2206" style="stroke:#000000;stroke-width:1.0;"/><text fill="#000000" font-family="sans-serif" font-size="13" lengthAdjust="spacing" textLength="34" x="73.5" y="255.7686">define</text><text fill="#000000" font-family="sans-serif" font-size="13" lengthAdjust="spacing" textLength="7" x="39.3813" y="67.7717">1</text><text fill="#000000" font-family="sans-serif" font-size="13" lengthAdjust="spacing" textLength="7" x="86.1572" y="419.2012">1</text></g><!--link Cabaz to HubsDestribuicaoCabaz--><g id="link_Cabaz_HubsDestribuicaoCabaz"><path codeLine="160" d="M656.07,203.71 C661.77,207.14 667.67,210.34 673.5,213 C778.78,260.93 909.8,291.25 991.81,307.05 " fill="none" id="Cabaz-HubsDestribuicaoCabaz" style="stroke:#181818;stroke-width:1.0;"/><polygon fill="#000000" points="798.2788,252.7326,790.4985,247.2629,788.7693,252.8806,798.2788,252.7326" style="stroke:#000000;stroke-width:1.0;"/><text fill="#000000" font-family="sans-serif" font-size="13" lengthAdjust="spacing" textLength="95" x="802.5" y="255.7686">s&#227;o depositados</text><text fill="#000000" font-family="sans-serif" font-size="13" lengthAdjust="spacing" textLength="7" x="664.0981" y="205.8445">1</text><text fill="#000000" font-family="sans-serif" font-size="13" lengthAdjust="spacing" textLength="20" x="963.911" y="302.9475">1..*</text></g><!--link HubsDestribuicao to HubsDestribuicaoCabaz--><g id="link_HubsDestribuicao_HubsDestribuicaoCabaz"><path codeLine="161" d="M847.34,321.5 C889.74,321.5 946.35,321.5 991.94,321.5 " fill="none" id="HubsDestribuicao-HubsDestribuicaoCabaz" style="stroke:#181818;stroke-width:1.0;"/><polygon fill="#000000" points="874.5,310.7617,865.4549,307.8228,865.4549,313.7006,874.5,310.7617" style="stroke:#000000;stroke-width:1.0;"/><text fill="#000000" font-family="sans-serif" font-size="13" lengthAdjust="spacing" textLength="95" x="878.5" y="315.2686">s&#227;o depositados</text><text fill="#000000" font-family="sans-serif" font-size="13" lengthAdjust="spacing" textLength="7" x="854.8949" y="318.494">1</text><text fill="#000000" font-family="sans-serif" font-size="13" lengthAdjust="spacing" textLength="20" x="964.0526" y="333.9313">1..*</text></g><!--link SensorMetereologico to TipoSensorMetereologico--><g id="link_SensorMetereologico_TipoSensorMetereologico"><path codeLine="162" d="M1085.5,495.05 C1085.5,532.05 1085.5,592.54 1085.5,625.78 " fill="none" id="SensorMetereologico-TipoSensorMetereologico" style="stroke:#181818;stroke-width:1.0;"/><polygon fill="#000000" points="1090.5,538.2617,1093.4389,529.2166,1087.5611,529.2166,1090.5,538.2617" style="stroke:#000000;stroke-width:1.0;"/><text fill="#000000" font-family="sans-serif" font-size="13" lengthAdjust="spacing" textLength="22" x="1099.5" y="537.7686">tem</text><text fill="#000000" font-family="sans-serif" font-size="13" lengthAdjust="spacing" textLength="20" x="1063.5313" y="514.6642">1..*</text><text fill="#000000" font-family="sans-serif" font-size="13" lengthAdjust="spacing" textLength="7" x="1077.5594" y="615.0563">1</text></g><!--link ProdutosAgricolas to OperacaoAgricola--><g id="link_ProdutosAgricolas_OperacaoAgricola"><path codeLine="163" d="M586.85,346.08 C559.78,369.16 518.37,404.47 488.48,429.96 " fill="none" id="ProdutosAgricolas-OperacaoAgricola" style="stroke:#181818;stroke-width:1.0;"/><polygon fill="#000000" points="539.6954,395.5059,548.4849,391.8734,544.6711,387.4008,539.6954,395.5059" style="stroke:#000000;stroke-width:1.0;"/><text fill="#000000" font-family="sans-serif" font-size="13" lengthAdjust="spacing" textLength="59" x="552.5" y="396.7686">recolhidos</text><text fill="#000000" font-family="sans-serif" font-size="13" lengthAdjust="spacing" textLength="20" x="557.2022" y="365.972">1..*</text><text fill="#000000" font-family="sans-serif" font-size="13" lengthAdjust="spacing" textLength="7" x="488.8038" y="419.145">1</text></g><!--link ElementoSubstancias to FichaTecnica--><g id="link_ElementoSubstancias_FichaTecnica"><path codeLine="165" d="M734.01,56.08 C734.56,81.64 735.44,122.2 735.99,147.8 " fill="none" id="ElementoSubstancias-FichaTecnica" style="stroke:#181818;stroke-width:1.0;"/><polygon fill="#000000" points="739.3921,89.2629,736.6491,98.3693,742.5255,98.2424,739.3921,89.2629" style="stroke:#000000;stroke-width:1.0;"/><text fill="#000000" font-family="sans-serif" font-size="13" lengthAdjust="spacing" textLength="30" x="748.5" y="98.7686">inclui</text><text fill="#000000" font-family="sans-serif" font-size="13" lengthAdjust="spacing" textLength="7" x="726.2438" y="75.972">1</text><text fill="#000000" font-family="sans-serif" font-size="13" lengthAdjust="spacing" textLength="20" x="713.1654" y="137.0817">1..*</text></g><!--link PlanoRega to ParcelaAgricola--><g id="link_PlanoRega_ParcelaAgricola"><path codeLine="166" d="M130.03,495.05 C152.28,529.26 187.58,583.53 209.87,617.79 " fill="none" id="PlanoRega-ParcelaAgricola" style="stroke:#181818;stroke-width:1.0;"/><polygon fill="#000000" points="167.2264,537.453,164.7579,528.2684,159.8307,531.4734,167.2264,537.453" style="stroke:#000000;stroke-width:1.0;"/><text fill="#000000" font-family="sans-serif" font-size="13" lengthAdjust="spacing" textLength="22" x="173.5" y="537.7686">tem</text><text fill="#000000" font-family="sans-serif" font-size="13" lengthAdjust="spacing" textLength="7" x="126.3828" y="514.6642">1</text><text fill="#000000" font-family="sans-serif" font-size="13" lengthAdjust="spacing" textLength="20" x="183.5526" y="607.4304">1..*</text></g><!--link PlanoRega to LeituraMetereologica--><g id="link_PlanoRega_LeituraMetereologica"><path codeLine="167" d="M150.89,471.61 C273.58,495.68 627.44,565.42 638.5,571 C644.4,573.98 650.21,577.47 655.85,581.28 " fill="none" id="PlanoRega-LeituraMetereologica" style="stroke:#181818;stroke-width:1.0;"/><polygon fill="#000000" points="501.3861,534.3229,493.1708,529.5312,491.9233,535.2752,501.3861,534.3229" style="stroke:#000000;stroke-width:1.0;"/><text fill="#000000" font-family="sans-serif" font-size="13" lengthAdjust="spacing" textLength="43" x="505.5" y="537.7686">contem</text><text fill="#000000" font-family="sans-serif" font-size="13" lengthAdjust="spacing" textLength="7" x="158.6055" y="469.7929">1</text><text fill="#000000" font-family="sans-serif" font-size="13" lengthAdjust="spacing" textLength="20" x="628.0095" y="571.5829">1..*</text></g><!--link PlanoRega to Regularidade--><g id="link_PlanoRega_Regularidade"><path codeLine="168" d="M92.6,495.22 C88.46,504.55 84.61,514.96 82.5,525 C75.26,559.48 77.24,600.53 79.64,625.8 " fill="none" id="PlanoRega-Regularidade" style="stroke:#181818;stroke-width:1.0;"/><polygon fill="#000000" points="87.0062,538.2373,90.8241,529.5267,84.975,528.9461,87.0062,538.2373" style="stroke:#000000;stroke-width:1.0;"/><text fill="#000000" font-family="sans-serif" font-size="13" lengthAdjust="spacing" textLength="22" x="96.5" y="537.7686">tem</text><text fill="#000000" font-family="sans-serif" font-size="13" lengthAdjust="spacing" textLength="7" x="81.7112" y="514.6175">1</text><text fill="#000000" font-family="sans-serif" font-size="13" lengthAdjust="spacing" textLength="20" x="56.1839" y="615.0817">1..*</text></g><!--link Fertilizacao to TipoFertilizacao--><g id="link_Fertilizacao_TipoFertilizacao"><path codeLine="169" d="M442.78,650.5 C464.1,650.5 490.77,650.5 513.97,650.5 " fill="none" id="Fertilizacao-TipoFertilizacao" style="stroke:#181818;stroke-width:1.0;"/><polygon fill="#000000" points="469.75,639.7617,460.7049,636.8228,460.7049,642.7006,469.75,639.7617" style="stroke:#000000;stroke-width:1.0;"/><text fill="#000000" font-family="sans-serif" font-size="13" lengthAdjust="spacing" textLength="22" x="473.75" y="644.2686">tem</text><text fill="#000000" font-family="sans-serif" font-size="13" lengthAdjust="spacing" textLength="20" x="450.634" y="663.4545">1..*</text><text fill="#000000" font-family="sans-serif" font-size="13" lengthAdjust="spacing" textLength="7" x="498.9502" y="647.3012">1</text></g><!--link FichaTecnica to FactorProducao--><g id="link_FichaTecnica_FactorProducao"><path codeLine="170" d="M782.14,172.5 C804.04,172.5 830.45,172.5 853.45,172.5 " fill="none" id="FichaTecnica-FactorProducao" style="stroke:#181818;stroke-width:1.0;"/><polygon fill="#000000" points="799.25,161.7617,808.2951,164.7006,808.2951,158.8228,799.25,161.7617" style="stroke:#000000;stroke-width:1.0;"/><text fill="#000000" font-family="sans-serif" font-size="13" lengthAdjust="spacing" textLength="22" x="813.25" y="166.2686">tem</text><text fill="#000000" font-family="sans-serif" font-size="13" lengthAdjust="spacing" textLength="20" x="789.9644" y="185.27">1..*</text><text fill="#000000" font-family="sans-serif" font-size="13" lengthAdjust="spacing" textLength="7" x="838.5823" y="169.3683">1</text></g><!--link CadernoCampo to OperacaoAgricola--><g id="link_CadernoCampo_OperacaoAgricola"><path codeLine="171" d="M344.51,338.72 C357.29,354.53 377.44,379.17 395.5,400 C404.02,409.82 413.46,420.33 422.14,429.84 " fill="none" id="CadernoCampo-OperacaoAgricola" style="stroke:#181818;stroke-width:1.0;"/><polygon fill="#000000" points="403.7426,396.0677,400.1138,387.2767,395.6396,391.0885,403.7426,396.0677" style="stroke:#000000;stroke-width:1.0;"/><text fill="#000000" font-family="sans-serif" font-size="13" lengthAdjust="spacing" textLength="39" x="409.5" y="396.7686">regista</text><text fill="#000000" font-family="sans-serif" font-size="13" lengthAdjust="spacing" textLength="7" x="340.4224" y="358.0411">1</text><text fill="#000000" font-family="sans-serif" font-size="13" lengthAdjust="spacing" textLength="20" x="394.022" y="419.4907">1..*</text></g><!--link OperacaoAgricola to TipoOperacaoAgricola--><g id="link_OperacaoAgricola_TipoOperacaoAgricola"><path codeLine="172" d="M520.12,462.5 C542.98,462.5 568.55,462.5 591.84,462.5 " fill="none" id="OperacaoAgricola-TipoOperacaoAgricola" style="stroke:#181818;stroke-width:1.0;"/><polygon fill="#000000" points="547.5,451.7617,538.4549,448.8228,538.4549,454.7006,547.5,451.7617" style="stroke:#000000;stroke-width:1.0;"/><text fill="#000000" font-family="sans-serif" font-size="13" lengthAdjust="spacing" textLength="22" x="551.5" y="456.2686">tem</text><text fill="#000000" font-family="sans-serif" font-size="13" lengthAdjust="spacing" textLength="20" x="528.2277" y="475.0214">1..*</text><text fill="#000000" font-family="sans-serif" font-size="13" lengthAdjust="spacing" textLength="7" x="576.7798" y="459.5592">1</text></g><!--link EstacaoMetereologica to SensorMetereologico--><g id="link_EstacaoMetereologica_SensorMetereologico"><path codeLine="173" d="M1237.43,338.72 C1209.87,360.99 1159.74,401.51 1124.62,429.89 " fill="none" id="EstacaoMetereologica-SensorMetereologico" style="stroke:#181818;stroke-width:1.0;"/><polygon fill="#000000" points="1177.6112,395.4045,1186.4934,392.0049,1182.7988,387.4334,1177.6112,395.4045" style="stroke:#000000;stroke-width:1.0;"/><text fill="#000000" font-family="sans-serif" font-size="13" lengthAdjust="spacing" textLength="85" x="1190.5" y="396.7686">constitu&#237;da por</text><text fill="#000000" font-family="sans-serif" font-size="13" lengthAdjust="spacing" textLength="7" x="1223.2117" y="358.0411">1</text><text fill="#000000" font-family="sans-serif" font-size="13" lengthAdjust="spacing" textLength="20" x="1110.99" y="419.0597">1..*</text></g><!--SRC=[bLRRYXmt47tNLuXvCHXiubUpB0phB3ROUF4uUJMrtJKzmcgfBQaTiac-9W_6Xdp5_5XAVT6jDJOU6EXMrQdhgMhPZq8DOA3dlLQwEHdT8tTcH6Q3P83c8tHuS7zAv0OR1wgJgO8zGQl_4AhZHv0M6NiayUYuqzo8xkHuApnAQCKIK2F1shrpHjoF3byrMXt40_9V63k95daZJ4DEfkSUtKctbj5lGl4xC0rAs7T6D5e2_ujn-hLeHQUW0JszWa5W_woGcr6wqQogYj9aNhXAuHuUPj6d4PGJBRGu6mMNMBc5ncbpPtGxafl4s0tzJID0JYT7kAV8o0wcq0JvmOb1JsWO96dIKMuwujwJPYwRlRhDUU9BD2TuZuqYqvkiWjQl4djKJX_6UqizfUXjJ6WhJCfrG6MrUOCE3MgfE-h2KekUEWFpasvH5dbKS36PYf3GC_Wr2j-zLBYsygJDx72GusUXRMoTmtv00nvu8CoiFVQJGZZuJ44sqz7lFjqIk3SPR7aT35eBUkzwRO_eMvqGZTICqZVG3xueKN0GbWp32to7dGz-pMrgdzDsPNFIX4MqIjY6piKWN6JmAsA2qE7rLlJHr6zgqircwFpb_AzE6kwRjxYC3LiEGYAtslIZX9oXuImwVEkBIoTvr6jixn2aU0XJd2UqdwQbXPnMTOEk8ecned5YyPCsQPgsJ1OoIKwZ_fq4fNr38ncjVvsBEKxEMV1A4Yg6IUhjBQUdGVKbpTqBjDDw526GUTKew-ceJSaJ4-CguSk2YxDFGqt7sK0bOlBX3DMBdCpLOUl-t3rx-lJnZZzvGa-xb1VykPyRVfreajggN-ThgKkAvOejh9QRFm_dWldlWnR-Uq_dRzxLUZ055J8egRH4TiLgop27rhRNS_f8F92pE205AA_3wenjFoELbjImv2glR72tgtoRLWpBjrOIOjBLK8fDZQx-9krisBOwUTgRR_iQoGNRjTgoYUs5uSsQ9SjqwN3dhnEz8k43SNV5oexwLrlzXO3hEY3b5ez2eQzXBPpgW1BAqk8bw40VCaVMBU5BrNooVi9GdQabUMfQSnF8nBQAkO7AbD3TJqkwnr48lXYLMqV9_EJsGdYX6ZaAJaMFrIrQUu4ob_Ihjucvkz_5fOiwE4d97OeH9p6L1aYQO0QfBZzYMtgd-E5QCjWHRw4sCvluBcorQrRxG1IkwqIXAbf7zJt_rm8VQ3oksVy0]--></g></svg>